<svg xmlns="http://www.w3.org/2000/svg" width="24" height="24" viewBox="0 0 24 24">
  <circle cx="12" cy="12" r="3" fill="none" stroke="#fff" stroke-width="2" stroke-linecap="round" stroke-linejoin="round"/>
  <path d="M19.4 15a1.65 1.65 0 0 0 .33 1.82l0 0a2 2 0 1 1-2.83 2.83l0 0a1.65 1.65 0 0 0-1.82-.33 1.65 1.65 0 0 0-1 1.51V22a2 2 0 1 1-4 0v0a1.65 1.65 0 0 0-1-1.51 1.65 1.65 0 0 0-1.82.33l0 0a2 2 0 1 1-2.83-2.83l0 0a1.65 1.65 0 0 0 .33-1.82 1.65 1.65 0 0 0-1.51-1H2a2 2 0 1 1 0-4h0a1.65 1.65 0 0 0 1.51-1 1.65 1.65 0 0 0-.33-1.82l0 0a2 2 0 1 1 2.83-2.83l0 0a1.65 1.65 0 0 0 1.82.33H8a1.65 1.65 0 0 0 1-1.51V2a2 2 0 1 1 4 0v0a1.65 1.65 0 0 0 1 1.51 1.65 1.65 0 0 0 1.82-.33l0 0a2 2 0 1 1 2.83 2.83l0 0a1.65 1.65 0 0 0-.33 1.82V8a1.65 1.65 0 0 0 1.51 1H22a2 2 0 1 1 0 4h0a1.65 1.65 0 0 0-1.51 1z" fill="none" stroke="#fff" stroke-width="2" stroke-linecap="round" stroke-linejoin="round"/>
</svg>
