<svg width="20" height="20" viewBox="0 0 20 20" fill="none" xmlns="http://www.w3.org/2000/svg">
<path d="M8.05556 0C12.5045 0 16.1111 3.60659 16.1111 8.05556C16.1111 9.97986 15.4364 11.7466 14.3106 13.132L19.7559 18.5774C20.0814 18.9028 20.0814 19.4305 19.7559 19.7559C19.4601 20.0518 18.9971 20.0787 18.6709 19.8366L18.5774 19.7559L13.132 14.3106C11.7466 15.4364 9.97986 16.1111 8.05556 16.1111C3.60659 16.1111 0 12.5045 0 8.05556C0 3.60659 3.60659 0 8.05556 0ZM8.05556 1.66667C4.52707 1.66667 1.66667 4.52707 1.66667 8.05556C1.66667 11.584 4.52707 14.4444 8.05556 14.4444C11.584 14.4444 14.4444 11.584 14.4444 8.05556C14.4444 4.52707 11.584 1.66667 8.05556 1.66667Z" fill="#174AE4"/>
</svg>
