<?xml version="1.0" encoding="utf-8"?>
<!-- Generator: Adobe Illustrator 22.0.1, SVG Export Plug-In . SVG Version: 6.00 Build 0)  -->
<svg version="1.1" id="Capa_1" xmlns="http://www.w3.org/2000/svg" xmlns:xlink="http://www.w3.org/1999/xlink" x="0px" y="0px"
	 viewBox="0 0 294.8 294.8" style="enable-background:new 0 0 294.8 294.8;" xml:space="preserve">
<style type="text/css">
	.st0{fill:#FFFFFF;}
</style>
<g>
	<path class="st0" d="M31.3,111.4c-1.3,4.4,1.3,9,5.7,10.3c4.4,1.3,9-1.3,10.3-5.7c14.3-49.2,60.1-83.5,111.3-83.5
		c63.9,0,115.9,52,115.9,115.9s-52,115.9-115.9,115.9c-30.9,0-60-12-81.9-33.9c-3.3-3.3-8.5-3.3-11.8,0c-3.3,3.3-3.3,8.5,0,11.8
		c25,25,58.3,38.8,93.7,38.8c73,0,132.5-59.5,132.5-132.5S231.6,16,158.6,16c-29.3,0-57.1,9.4-80.3,27.1
		C55.8,60.2,39.1,84.5,31.3,111.4z"/>
	<path class="st0" d="M38.8,122.4L18.2,92.9c-2.6-3.8-7.8-4.7-11.6-2.1c-3.8,2.6-4.7,7.8-2.1,11.6l25.4,36.4c1.3,1.8,3.2,3,5.4,3.4
		c2.1,0.4,4.4-0.1,6.2-1.4l36.4-25.4c3.8-2.6,4.7-7.8,2.1-11.6c-2.6-3.8-7.8-4.7-11.6-2.1L38.8,122.4z"/>
</g>
</svg>
