<?xml version="1.0" encoding="utf-8"?>
<!-- Generator: Adobe Illustrator 27.1.1, SVG Export Plug-In . SVG Version: 6.00 Build 0)  -->
<svg version="1.1" id="Layer_1" xmlns="http://www.w3.org/2000/svg" xmlns:xlink="http://www.w3.org/1999/xlink" x="0px" y="0px"
	 viewBox="0 0 751.8 416" style="enable-background:new 0 0 751.8 416;" xml:space="preserve">
<style type="text/css">
	.st0{clip-path:url(#SVGID_00000179611662809231151650000005370668078094640568_);}
	.st1{fill:#FFFFFF;}
	.st2{fill:#EC1D24;}
	.st3{fill:url(#SVGID_00000024720367525777822840000006751462166657124737_);}
	.st4{fill:url(#SVGID_00000183216340653943687310000012931513249736405170_);}
	.st5{fill:url(#SVGID_00000080893475865911755650000000571935342448255160_);}
	.st6{fill:url(#SVGID_00000095326734508862466200000004550307749529404065_);}
	.st7{fill:url(#SVGID_00000152973711527057855840000000631764665611390640_);}
</style>
<g>
	<g>
		<defs>
			<rect id="SVGID_1_" x="-124" y="-289.4" width="1000" height="1000"/>
		</defs>
		<clipPath id="SVGID_00000026133788764522422370000000901393448554810248_">
			<use xlink:href="#SVGID_1_"  style="overflow:visible;"/>
		</clipPath>
		<g id="f" style="clip-path:url(#SVGID_00000026133788764522422370000000901393448554810248_);">
			<g transform="translate(-2.69 47.639)">
				<g transform="translate(88 195)">
					<g transform="translate(26 46)">
						<g transform="translate(10 -269.469)">
							<g transform="translate(4.978 275.831)">
								<path class="st1" d="M82.1-289.4H465c0.2,0.3,0.4,0.7,0.6,1c19.1,36.1,38.1,72.2,57.2,108.2c0.2,0.4,0.4,0.7,0.6,1.1
									c0.2-0.4,0.3-0.7,0.5-0.9c14.2-28.4,28.3-56.8,42.5-85.3c4-8.1,8-16.1,12.1-24.2H625c-0.1,0.3-0.2,0.7-0.4,1
									c-24.6,48.9-49.2,97.7-73.8,146.6c-0.2,0.6-0.8,0.9-1.4,0.8c-17.5,0-35,0-52.5,0c-0.7,0.1-1.3-0.3-1.6-0.9
									c-19.8-37.2-39.5-74.4-59.3-111.6c-0.2-0.6-0.8-0.9-1.4-0.9c-19.6,0-39.2,0-58.8,0h-1.1v113.3h-43.3v-113.2H264
									c0.1,0.3,0.1,0.5,0.2,0.8c1.8,6.8,2.8,13.7,3,20.7s0.2,14,0.2,21c-0.1,5.2-0.2,10.5-0.7,15.7c-0.7,7.8-2.6,15.5-5.7,22.7
									c-5.2,12-13.6,21-25.5,26.5c-8.5,3.9-17.5,5.5-26.8,5.9c-1.3,0-2.6,0.1-3.9,0.2H82.1c-0.1-0.3-0.1-0.6-0.2-1
									c0-48.9,0-97.7,0-146.6C82-288.8,82-289.1,82.1-289.4z M125.9-175.9h73c3.3,0,6.5-0.3,9.7-1.1c6.7-1.8,11.5-5.7,13.7-12.4
									c0.9-2.9,1.4-5.9,1.3-8.9c0-11.2,0-22.3,0-33.5c0-1.6-0.1-3.2-0.4-4.8c-1.2-7.3-5.1-12.5-12-15.5c-4-1.6-8.3-2.4-12.6-2.2
									c-23.9,0-47.9,0-71.8,0c-0.3,0-0.6,0-1,0C125.9-228.2,125.9-202.1,125.9-175.9z"/>
								<path class="st1" d="M23.6-289.4h45.2c0,0.3,0,0.7,0,1V-141h-1.2c-15.3,0-30.5,0-45.8,0c-9.1,0-18.1-2.2-26.1-6.5
									c-12.2-6.5-21-16.2-27.2-28.5c-3.8-7.4-7.3-15-10.9-22.5c-5.6-11.5-11.2-23-16.7-34.5c-1.2-2.5-2.8-4.9-4.7-7
									c-2.4-3-5.6-5.1-9.3-6.3c-1.7-0.5-3.4-0.6-5.2-0.4v104.5c0,0.4-0.1,0.9-0.1,1.3h-45.5c0-0.4-0.1-0.8-0.1-1.2v-146.2
									c0-0.4,0-0.8,0.1-1.2h47.2c0.3,0,0.6,0.1,0.9,0.1c2.6,0.2,5.2,0.3,7.8,0.7c10.1,1.6,19.6,6,27.5,12.6
									c8.2,6.8,14.9,15.3,19.4,25c8,16.6,15.9,33.3,23.8,50c1.4,3.2,3.2,6.2,5.3,9.1c2.2,3.2,5.3,5.8,8.9,7.4
									c2.1,0.9,4.4,1.2,6.7,1V-288C23.6-288.4,23.6-288.9,23.6-289.4z"/>
								<path class="st1" d="M-123.8-289.4c0,0.4-0.1,0.8-0.1,1.2V-142c0,0.4,0,0.8,0.1,1.2c-0.1,0-0.2-0.1-0.2-0.1
									c0-0.2,0-0.5,0-0.7c0-49,0-97.9,0-146.9C-124-288.9-123.9-289.1-123.8-289.4z"/>
							</g>
							<g transform="translate(177.689 323.099)">
								<g transform="translate(0)">
									<path class="st2" d="M-95.4-235.1h-3.4c-1.3-0.2-2.7-0.4-4-0.6c-14.1-3-23.3-16.6-20.8-30.8c2.4-14.6,16.6-25.9,32.7-22.2
										c13.9,3.3,23,16.7,20.8,30.8c-1.7,11-10.1,19.8-21.1,22.1C-92.6-235.5-94-235.3-95.4-235.1z"/>
								</g>
							</g>
						</g>
						<g transform="translate(-1055.27 -136.189)">
							<g transform="translate(1067.96 312.01)">
								
									<linearGradient id="SVGID_00000116219389226014579800000001795557122805489066_" gradientUnits="userSpaceOnUse" x1="-8.8542" y1="51.4159" x2="-4.8892" y2="51.4159" gradientTransform="matrix(168.172 0 0 218.824 1364.9858 -11412.2637)">
									<stop  offset="2.200000e-02" style="stop-color:#026EE0"/>
									<stop  offset="7.800000e-02" style="stop-color:#0677E3"/>
									<stop  offset="0.172" style="stop-color:#1291ED"/>
									<stop  offset="0.291" style="stop-color:#24BAFC"/>
									<stop  offset="0.302" style="stop-color:#26BEFD"/>
									<stop  offset="0.347" style="stop-color:#3AB6FC"/>
									<stop  offset="0.44" style="stop-color:#6EA2F9"/>
									<stop  offset="0.571" style="stop-color:#C182F3"/>
									<stop  offset="0.651" style="stop-color:#F76DF0"/>
									<stop  offset="0.922" style="stop-color:#F75EE3"/>
									<stop  offset="0.974" style="stop-color:#DD5687"/>
								</linearGradient>
								<path style="fill:url(#SVGID_00000116219389226014579800000001795557122805489066_);" d="M-73.2-126.8v75H-124v-218.8h83.6
									c26,0,46.5,6.6,61.8,19.8c15.2,13.2,22.8,30.6,22.8,52.1s-7.6,38.9-22.8,52.1c-15.3,13.2-35.9,19.8-61.8,19.8H-73.2
									L-73.2-126.8z M-73.2-165.9h32.8c11,0,19.4-3,25.2-9.1s8.7-13.9,8.7-23.4c0-9.7-2.9-17.7-8.6-23.9
									c-5.8-6.2-14.2-9.3-25.3-9.3h-32.8V-165.9z"/>
								
									<linearGradient id="SVGID_00000080905978366436431480000017968795177995548349_" gradientUnits="userSpaceOnUse" x1="-12.5813" y1="51.0644" x2="-5.5393" y2="51.0644" gradientTransform="matrix(94.6841 0 0 165.6216 1067.2312 -8591.9951)">
									<stop  offset="2.200000e-02" style="stop-color:#026EE0"/>
									<stop  offset="7.800000e-02" style="stop-color:#0677E3"/>
									<stop  offset="0.172" style="stop-color:#1291ED"/>
									<stop  offset="0.291" style="stop-color:#24BAFC"/>
									<stop  offset="0.302" style="stop-color:#26BEFD"/>
									<stop  offset="0.347" style="stop-color:#3AB6FC"/>
									<stop  offset="0.44" style="stop-color:#6EA2F9"/>
									<stop  offset="0.571" style="stop-color:#C182F3"/>
									<stop  offset="0.651" style="stop-color:#F76DF0"/>
									<stop  offset="0.922" style="stop-color:#F75EE3"/>
									<stop  offset="0.974" style="stop-color:#DD5687"/>
								</linearGradient>
								<path style="fill:url(#SVGID_00000080905978366436431480000017968795177995548349_);" d="M159.2-171.1l-16.5-0.2
									c-5.8,0-10.6,1.1-14.3,3.2c-3.6,2.1-6.5,5.3-8.3,9.1v107.2H69.3v-162.6h47.8l1.8,23.9c3.4-8.5,7.9-15.1,13.5-19.8
									c5.5-4.7,12.5-7.2,19.7-7.1c2.1,0,4.1,0.1,6.2,0.5c1.9,0.3,3.8,0.8,5.7,1.4L159.2-171.1z"/>
								
									<linearGradient id="SVGID_00000098201406034686075090000002377906961648842376_" gradientUnits="userSpaceOnUse" x1="-10.8784" y1="51.0915" x2="-6.6414" y2="51.0915" gradientTransform="matrix(157.36 0 0 168.776 1587.7719 -8756.0537)">
									<stop  offset="2.200000e-02" style="stop-color:#026EE0"/>
									<stop  offset="7.800000e-02" style="stop-color:#0677E3"/>
									<stop  offset="0.172" style="stop-color:#1291ED"/>
									<stop  offset="0.291" style="stop-color:#24BAFC"/>
									<stop  offset="0.302" style="stop-color:#26BEFD"/>
									<stop  offset="0.347" style="stop-color:#3AB6FC"/>
									<stop  offset="0.44" style="stop-color:#6EA2F9"/>
									<stop  offset="0.571" style="stop-color:#C182F3"/>
									<stop  offset="0.651" style="stop-color:#F76DF0"/>
									<stop  offset="0.922" style="stop-color:#F75EE3"/>
									<stop  offset="0.974" style="stop-color:#DD5687"/>
								</linearGradient>
								<path style="fill:url(#SVGID_00000098201406034686075090000002377906961648842376_);" d="M171-134.6
									c0-24.4,6.9-44.4,20.7-59.7c13.8-15.4,33.1-23.1,57.9-23.1s44.2,7.7,58,23.1s20.7,35.3,20.7,59.7v3.2
									c0,24.5-6.9,44.5-20.7,59.8c-13.8,15.3-33.1,23-57.7,23c-24.9,0-44.3-7.7-58.2-23C177.9-87,171-106.9,171-131.4V-134.6z
									 M221.8-131.4c0,13.6,2.1,24.3,6.4,32.1c4.3,7.8,11.5,11.6,21.7,11.6c9.9,0,17-3.9,21.3-11.7s6.5-18.5,6.5-32v-3.2
									c0-13.2-2.2-23.8-6.5-31.8s-11.5-11.9-21.6-11.9c-10,0-17.2,4-21.4,12c-4.3,8-6.4,18.6-6.4,31.7L221.8-131.4L221.8-131.4z"
									/>
								
									<linearGradient id="SVGID_00000085240418257368091640000001256632793002854529_" gradientUnits="userSpaceOnUse" x1="-11.3367" y1="51.5028" x2="-7.5607" y2="51.5028" gradientTransform="matrix(176.588 0 0 237.616 1877.8147 -12408.418)">
									<stop  offset="2.200000e-02" style="stop-color:#026EE0"/>
									<stop  offset="7.800000e-02" style="stop-color:#0677E3"/>
									<stop  offset="0.172" style="stop-color:#1291ED"/>
									<stop  offset="0.291" style="stop-color:#24BAFC"/>
									<stop  offset="0.302" style="stop-color:#26BEFD"/>
									<stop  offset="0.347" style="stop-color:#3AB6FC"/>
									<stop  offset="0.44" style="stop-color:#6EA2F9"/>
									<stop  offset="0.571" style="stop-color:#C182F3"/>
									<stop  offset="0.651" style="stop-color:#F76DF0"/>
									<stop  offset="0.922" style="stop-color:#F75EE3"/>
									<stop  offset="0.974" style="stop-color:#DD5687"/>
								</linearGradient>
								<path style="fill:url(#SVGID_00000085240418257368091640000001256632793002854529_);" d="M356.2-51.8v-127.5h-23.6v-35.1
									h23.6v-7.8c0-21.6,6.7-38.2,20-49.8s32.3-17.4,56.8-17.4c8.4,0,16.8,0.8,25.1,2.3c8.3,1.5,17.6,3.7,27.8,6.5l-6.9,40
									c-8.6-2.2-15.8-3.9-21.6-5c-7.1-1.2-14.2-1.8-21.4-1.6c-9.3,0-16.5,2.2-21.5,6.5c-5,4.4-7.5,10.5-7.5,18.6v7.8h31.9v35.2
									H407v127.5L356.2-51.8L356.2-51.8z M509.2-51.8h-51v-162.6h51V-51.8z"/>
								
									<linearGradient id="SVGID_00000071553364002790256210000011666579003877446024_" gradientUnits="userSpaceOnUse" x1="-16.6074" y1="51.3488" x2="-10.0834" y2="51.3488" gradientTransform="matrix(102.205 0 0 206.2019 1573.3202 -10740)">
									<stop  offset="0" style="stop-color:#026EE0"/>
									<stop  offset="2.200000e-02" style="stop-color:#026EE0"/>
									<stop  offset="7.800000e-02" style="stop-color:#0677E3"/>
									<stop  offset="0.172" style="stop-color:#1291ED"/>
									<stop  offset="0.291" style="stop-color:#24BAFC"/>
									<stop  offset="0.302" style="stop-color:#26BEFD"/>
									<stop  offset="0.347" style="stop-color:#3AB6FC"/>
									<stop  offset="0.44" style="stop-color:#6EA2F9"/>
									<stop  offset="0.571" style="stop-color:#C182F3"/>
									<stop  offset="0.651" style="stop-color:#F76DF0"/>
									<stop  offset="0.762" style="stop-color:#FF42FE"/>
									<stop  offset="0.922" style="stop-color:#FF42E3"/>
									<stop  offset="0.974" style="stop-color:#DD5687"/>
									<stop  offset="1" style="stop-color:#F33A81"/>
								</linearGradient>
								<path style="fill:url(#SVGID_00000071553364002790256210000011666579003877446024_);" d="M598.6-254.8v40.4h25.7v35.2h-25.7
									v74.5c0,5.8,1.2,10,3.5,12.5c2.5,2.6,6,4,9.5,3.8c2.1,0,4.2-0.1,6.2-0.3c2-0.3,4-0.7,5.9-1.2l3.5,37.6
									c-4.6,1.2-9.2,2.1-13.8,2.8c-4.8,0.6-9.7,0.9-14.6,0.8c-16.7,0-29.4-4.5-38.1-13.4s-13-23-13-42.4v-74.9H525v-35h22.7v-40.4
									H598.6L598.6-254.8z"/>
							</g>
						</g>
					</g>
				</g>
			</g>
		</g>
	</g>
</g>
</svg>
