<?xml version="1.0" encoding="utf-8"?>
<!-- Generator: Adobe Illustrator 25.4.1, SVG Export Plug-In . SVG Version: 6.00 Build 0)  -->
<svg version="1.1" id="Layer_1" xmlns="http://www.w3.org/2000/svg" xmlns:xlink="http://www.w3.org/1999/xlink" x="0px" y="0px"
	 viewBox="0 0 200 200" style="enable-background:new 0 0 200 200;" xml:space="preserve">
<style type="text/css">
	.st0{display:none;}
	.st1{display:inline;fill:#C3C3C3;}
	.st2{display:inline;}
	.st3{fill:#C3C3C3;}
</style>
<g id="movies" class="st0">
	<path class="st1" d="M178.1,79.4c-0.2-2.3-2.1-4-4.4-4H53.1l113.4-40.8c1.1-0.4,2.1-1.3,2.6-2.4c0.5-1.1,0.5-2.4,0.1-3.5
		c-5.3-13.5-20.2-20.3-33.9-15.4L39.7,47.8c-13.4,4.8-20.6,19-16.6,32.6c0,0.1,0,0.1,0,0.2v80.7c0,14.7,12,26.7,26.7,26.7h101.6
		c14.7,0,26.7-12,26.7-26.7V80.6C178.2,80.1,178.2,79.7,178.1,79.4L178.1,79.4z M169.2,95.5h-26.9l11.6-11.2h15.3L169.2,95.5
		L169.2,95.5z M32,95.5V84.3h26.3L46.6,95.5H32z M71.1,84.3h28.6L88,95.5H59.4L71.1,84.3z M112.5,84.3h28.6l-11.6,11.2h-28.6
		L112.5,84.3z M68.2,60.3l-16.4-7.4l26.9-9.7l16.6,7.5l-26.9,9.7C68.3,60.4,68.2,60.3,68.2,60.3L68.2,60.3z M117.7,29.2l16.6,7.5
		l-26.9,9.7c-0.1,0-0.1-0.1-0.2-0.1l-16.4-7.4L117.7,29.2z M138.3,21.8c2-0.7,4.1-1.1,6.1-1.1c5.6,0,10.9,2.7,14.3,7.2l-12.3,4.4
		c-0.1,0-0.1-0.1-0.2-0.1l-16.4-7.4L138.3,21.8z M40,57.4l16.3,7.3l-25.4,9.1C30.5,67.1,34,60.7,40,57.4L40,57.4z M151.4,179.1H49.8
		c-9.8,0-17.8-8-17.8-17.8v-56.8h137.3v56.8C169.2,171.1,161.2,179.1,151.4,179.1L151.4,179.1z"/>
</g>
<g id="tv-shows" class="st0">
	<g id="noun-tv-2225549" transform="translate(-84 -58.801)" class="st2">
		<g id="Group_1756" transform="translate(84 58.801)">
			<path id="Path_2172" d="M87.7,112.4l33.8-22.5c2-1.3,2.6-4,1.2-6.1c-0.3-0.5-0.8-0.9-1.2-1.2L87.7,60.1c-2-1.3-4.7-0.7-6.1,1.3
				c-0.4,0.7-0.7,1.4-0.7,2.2v44.9c-0.2,2.4,1.6,4.5,3.9,4.7C85.9,113.3,86.9,113,87.7,112.4L87.7,112.4z"/>
			<path id="Path_2173" d="M183.8,27.6H14.9c-2.6,0-4.7,2-4.7,4.6v0.1v108.1c0,2.6,2,4.7,4.6,4.7h0.1h76.9v16H71.2
				c-1.3,0-2.4,1.1-2.5,2.5v9.9c0,1.3,1.1,2.4,2.5,2.5h55.9c1.3,0,2.4-1.1,2.5-2.5v-9.9c0-1.3-1.1-2.4-2.5-2.5h-20.6v-16h76.9
				c2.6,0,4.7-2,4.7-4.6v-0.1V32.3c0.3-2.3-1.3-4.4-3.5-4.7C184.3,27.6,184,27.6,183.8,27.6z M173.8,130.6h-149V42.4h148.8v88.2
				H173.8z"/>
		</g>
	</g>
</g>
<g id="video-game">
	<g id="noun-control-pad-632257" transform="translate(194.002 198.999)">
		<path id="Path_2323" class="st3" d="M-103.7-97.8v-5.1c0-1.8-0.7-3.5-2-4.7l-22.6-22.6c-1.3-1.3-3-2-4.7-2h-44.5
			c-3.7,0-6.7,3-6.7,6.7v50.4c0,3.7,3,6.7,6.7,6.7l0,0h44.5c1.8,0,3.5-0.7,4.7-2l22.6-22.6C-104.4-94.3-103.7-96-103.7-97.8
			L-103.7-97.8z M-135.9-81.9h-35v-36.9h35l18.5,18.5L-135.9-81.9z M-86.4-88.3c-1.3-1.3-3-2-4.7-2h-5.1c-1.8,0-3.5,0.7-4.7,2
			l-22.6,22.6c-1.3,1.3-2,3-2,4.7v44.5c0,3.7,3,6.7,6.7,6.7l0,0h50.4c3.7,0,6.7-3,6.7-6.7l0,0V-61c0-1.8-0.7-3.5-2-4.7L-86.4-88.3z
			 M-75.2-23.2h-36.9v-35l18.5-18.5l18.5,18.5L-75.2-23.2L-75.2-23.2z M-9.7-132.3h-44.5c-1.8,0-3.5,0.7-4.7,2l-22.6,22.6
			c-1.3,1.3-2,3-2,4.7v5.1c0,1.8,0.7,3.5,2,4.7L-59-70.5c1.3,1.3,3,2,4.7,2h44.5c3.7,0,6.7-3,6.7-6.7v-50.3
			C-3-129.3-6-132.3-9.7-132.3z M-16.4-81.9h-35l-18.5-18.5l18.5-18.5h35C-16.4-118.9-16.4-81.9-16.4-81.9z M-100.9-112.4
			c1.3,1.3,3,2,4.7,2h5.1c1.8,0,3.5-0.7,4.7-2l22.6-22.6c1.3-1.3,2-3,2-4.7v-44.5c0-3.7-3-6.7-6.7-6.7l0,0h-50.4
			c-3.7,0-6.7,3-6.7,6.7l0,0v44.5c0,1.8,0.7,3.5,2,4.7L-100.9-112.4z M-112.1-177.6h36.9v35l-18.5,18.5l-18.5-18.5L-112.1-177.6
			L-112.1-177.6z"/>
	</g>
</g>
</svg>
