<?xml version="1.0" encoding="utf-8"?>
<!-- Generator: Adobe Illustrator 24.0.1, SVG Export Plug-In . SVG Version: 6.00 Build 0)  -->
<svg version="1.1" id="Layer_1" xmlns="http://www.w3.org/2000/svg" xmlns:xlink="http://www.w3.org/1999/xlink" x="0px" y="0px"
	 viewBox="0 0 120 30" style="enable-background:new 0 0 120 30;" xml:space="preserve">
<style type="text/css">
	.st0{fill:#DBA331;}
</style>
<g>
	<path class="st0" d="M30.5,23.9l1.1-6.5l-4.8-4.6l6.6-1l2.9-6l2.9,6l6.6,1L41,17.4l1.1,6.5l-5.9-3.1L30.5,23.9z M36.4,19.7l4.6,2.4
		L40.1,17l3.7-3.6l-5.1-0.7l-2.3-4.6l-2.3,4.6L29,13.4l3.7,3.6l-0.9,5.1L36.4,19.7z"/>
</g>
<g>
	<path class="st0" d="M65.7,23.9l-5.9-3.1L54,23.9l1.1-6.5l-4.8-4.6l6.6-1l2.9-6l2.9,6l6.6,1l-4.8,4.6L65.7,23.9z M59.8,19.7
		l4.6,2.4L63.5,17l3.7-3.6l-5.1-0.7l-2.3-4.6l-2.3,4.6l-5.1,0.7l3.7,3.6l-0.9,5.1L59.8,19.7z"/>
</g>
<g>
	<path class="st0" d="M89.1,23.9l-5.9-3.1l-5.9,3.1l1.1-6.5l-4.8-4.6l6.6-1l2.9-6l2.9,6l6.6,1L88,17.4L89.1,23.9z M83.2,19.7
		l4.6,2.4L86.9,17l3.7-3.6l-5.1-0.7l-2.3-4.6L81,12.7l-5.1,0.7l3.7,3.6l-0.9,5.1L83.2,19.7z"/>
</g>
<g>
	<path class="st0" d="M112.5,23.9l-5.9-3.1l-5.9,3.1l1.1-6.5L97,12.8l6.6-1l2.9-6l2.9,6l6.6,1l-4.8,4.6L112.5,23.9z M99.3,13.5
		L103,17l-0.9,5.1l4.6-2.4l4.6,2.4l-0.9-5.1l3.7-3.6l-5.1-0.7l-2.3-4.6l-2.3,4.6L99.3,13.5z"/>
</g>
<g>
	<path class="st0" d="M7.2,23.9l1.1-6.5l-4.8-4.6l6.6-1l2.9-6l2.9,6l6.6,1l-4.8,4.6l1.1,6.5l-5.9-3.1L7.2,23.9z M13.1,19.7l4.6,2.4
		L16.8,17l3.7-3.6l-5.1-0.7l-2.3-4.6l-2.3,4.6l-5.1,0.7L9.4,17l-0.9,5.1L13.1,19.7z"/>
</g>
</svg>
