<?xml version="1.0" encoding="utf-8"?>
<!-- Generator: Adobe Illustrator 25.4.1, SVG Export Plug-In . SVG Version: 6.00 Build 0)  -->
<svg version="1.1" id="Layer_1" xmlns="http://www.w3.org/2000/svg" xmlns:xlink="http://www.w3.org/1999/xlink" x="0px" y="0px"
	 viewBox="0 0 200 200" style="enable-background:new 0 0 200 200;" xml:space="preserve">
<style type="text/css">
	.st0{display:none;}
	.st1{display:inline;fill:#C3C3C3;}
	.st2{display:inline;}
	.st3{fill:#C3C3C3;}
</style>
<g id="movies" class="st0">
	<path class="st1" d="M178.1,79.4c-0.2-2.3-2.1-4-4.4-4H53.1l113.4-40.8c1.1-0.4,2.1-1.3,2.6-2.4c0.5-1.1,0.5-2.4,0.1-3.5
		c-5.3-13.5-20.2-20.3-33.9-15.4L39.7,47.8c-13.4,4.8-20.6,19-16.6,32.6c0,0.1,0,0.1,0,0.2v80.7c0,14.7,12,26.7,26.7,26.7h101.6
		c14.7,0,26.7-12,26.7-26.7V80.6C178.2,80.1,178.2,79.7,178.1,79.4L178.1,79.4z M169.2,95.5h-26.9l11.6-11.2h15.3L169.2,95.5
		L169.2,95.5z M32,95.5V84.3h26.3L46.6,95.5H32z M71.1,84.3h28.6L88,95.5H59.4L71.1,84.3z M112.5,84.3h28.6l-11.6,11.2h-28.6
		L112.5,84.3z M68.2,60.3l-16.4-7.4l26.9-9.7l16.6,7.5l-26.9,9.7C68.3,60.4,68.2,60.3,68.2,60.3L68.2,60.3z M117.7,29.2l16.6,7.5
		l-26.9,9.7c-0.1,0-0.1-0.1-0.2-0.1l-16.4-7.4L117.7,29.2z M138.3,21.8c2-0.7,4.1-1.1,6.1-1.1c5.6,0,10.9,2.7,14.3,7.2l-12.3,4.4
		c-0.1,0-0.1-0.1-0.2-0.1l-16.4-7.4L138.3,21.8z M40,57.4l16.3,7.3l-25.4,9.1C30.5,67.1,34,60.7,40,57.4L40,57.4z M151.4,179.1H49.8
		c-9.8,0-17.8-8-17.8-17.8v-56.8h137.3v56.8C169.2,171.1,161.2,179.1,151.4,179.1L151.4,179.1z"/>
</g>
<g id="tv-shows" class="st0">
	<g id="noun-tv-2225549" transform="translate(-84 -58.801)" class="st2">
		<g id="Group_1756" transform="translate(84 58.801)">
			<path id="Path_2172" d="M87.7,112.4l33.8-22.5c2-1.3,2.6-4,1.2-6.1c-0.3-0.5-0.8-0.9-1.2-1.2L87.7,60.1c-2-1.3-4.7-0.7-6.1,1.3
				c-0.4,0.7-0.7,1.4-0.7,2.2v44.9c-0.2,2.4,1.6,4.5,3.9,4.7C85.9,113.3,86.9,113,87.7,112.4L87.7,112.4z"/>
			<path id="Path_2173" d="M183.8,27.6H14.9c-2.6,0-4.7,2-4.7,4.6v0.1v108.1c0,2.6,2,4.7,4.6,4.7h0.1h76.9v16H71.2
				c-1.3,0-2.4,1.1-2.5,2.5v9.9c0,1.3,1.1,2.4,2.5,2.5h55.9c1.3,0,2.4-1.1,2.5-2.5v-9.9c0-1.3-1.1-2.4-2.5-2.5h-20.6v-16h76.9
				c2.6,0,4.7-2,4.7-4.6v-0.1V32.3c0.3-2.3-1.3-4.4-3.5-4.7C184.3,27.6,184,27.6,183.8,27.6z M173.8,130.6h-149V42.4h148.8v88.2
				H173.8z"/>
		</g>
	</g>
</g>
<g id="video-game" class="st0">
	<g id="noun-control-pad-632257" transform="translate(194.002 198.999)" class="st2">
		<path id="Path_2323" d="M-103.7-97.8v-5.1c0-1.8-0.7-3.5-2-4.7l-22.6-22.6c-1.3-1.3-3-2-4.7-2h-44.5c-3.7,0-6.7,3-6.7,6.7v50.4
			c0,3.7,3,6.7,6.7,6.7l0,0h44.5c1.8,0,3.5-0.7,4.7-2l22.6-22.6C-104.4-94.3-103.7-96-103.7-97.8L-103.7-97.8z M-135.9-81.9h-35
			v-36.9h35l18.5,18.5L-135.9-81.9z M-86.4-88.3c-1.3-1.3-3-2-4.7-2h-5.1c-1.8,0-3.5,0.7-4.7,2l-22.6,22.6c-1.3,1.3-2,3-2,4.7v44.5
			c0,3.7,3,6.7,6.7,6.7l0,0h50.4c3.7,0,6.7-3,6.7-6.7l0,0V-61c0-1.8-0.7-3.5-2-4.7L-86.4-88.3z M-75.2-23.2h-36.9v-35l18.5-18.5
			l18.5,18.5L-75.2-23.2L-75.2-23.2z M-9.7-132.3h-44.5c-1.8,0-3.5,0.7-4.7,2l-22.6,22.6c-1.3,1.3-2,3-2,4.7v5.1
			c0,1.8,0.7,3.5,2,4.7L-59-70.5c1.3,1.3,3,2,4.7,2h44.5c3.7,0,6.7-3,6.7-6.7v-50.3C-3-129.3-6-132.3-9.7-132.3z M-16.4-81.9h-35
			l-18.5-18.5l18.5-18.5h35C-16.4-118.9-16.4-81.9-16.4-81.9z M-100.9-112.4c1.3,1.3,3,2,4.7,2h5.1c1.8,0,3.5-0.7,4.7-2l22.6-22.6
			c1.3-1.3,2-3,2-4.7v-44.5c0-3.7-3-6.7-6.7-6.7l0,0h-50.4c-3.7,0-6.7,3-6.7,6.7l0,0v44.5c0,1.8,0.7,3.5,2,4.7L-100.9-112.4z
			 M-112.1-177.6h36.9v35l-18.5,18.5l-18.5-18.5L-112.1-177.6L-112.1-177.6z"/>
	</g>
</g>
<g id="video-game-platform" class="st0">
	<g id="noun-play-station-4202396" transform="translate(96.653 298.001)" class="st2">
		<g id="Group_1764" transform="translate(-96.653 -298.001)">
			<path id="Path_2243" d="M139.7,159.5h-1.8V20.3c0-7-5.7-12.6-12.6-12.6H74.8c-7,0-12.6,5.7-12.6,12.6v139.2h-1.8c-5,0-9,4-9,9
				v14.8c0,5,4,9,9,9h79.3c5,0,9-4,9-9v-14.8C148.7,163.6,144.7,159.5,139.7,159.5L139.7,159.5z M94.6,18.5h10.8v55.9
				c-0.1,3-2.6,5.3-5.5,5.3c-2.9-0.1-5.2-2.4-5.3-5.3V18.5z M72.9,20.3c0-1,0.8-1.8,1.8-1.8l0,0h9v55.9c-0.1,9,7,16.3,16,16.5
				c9,0.1,16.3-7,16.5-16c0-0.2,0-0.3,0-0.5V18.5h9c1,0,1.8,0.8,1.8,1.8l0,0v139.2H72.9V20.3z M137.9,181.5H62.1v-11.2h75.7v11.2
				H137.9z"/>
			<path id="Path_2244" d="M105.4,123.5H94.6c-3,0.1-5.3,2.6-5.3,5.5c0.1,2.9,2.4,5.2,5.3,5.3h10.8c3-0.1,5.3-2.6,5.3-5.5
				C110.6,125.9,108.3,123.6,105.4,123.5z"/>
		</g>
	</g>
</g>
<g id="comic-book">
	<g id="noun-discover-4045054" transform="translate(333 186.129)">
		<path id="Path_2370" class="st3" d="M-229.3-133.7v95.2c0,0.9,0.7,1.6,1.6,1.7L-143-31c1,0.1,1.8-0.7,1.8-1.7v-106.8
			c0-1-0.8-1.8-1.8-1.7l-84.7,5.8C-228.6-135.3-229.3-134.6-229.3-133.7z M-214.7-119.2l6.4-0.6c1-0.1,1.9,0.7,1.9,1.7v7.5
			c0,0.9-0.8,1.7-1.7,1.7h-6.4c-0.9,0-1.7-0.8-1.7-1.7v-6.9C-216.3-118.4-215.6-119.1-214.7-119.2z M-214.6-102.4h35
			c1.7,0,2.3,2.1,1,3.1l-31.8,22.7c-0.3,0.2-0.6,0.3-1,0.3h-4.9v-24.4C-216.3-101.7-215.5-102.4-214.6-102.4z M-185.5-50.1
			l-29.2-2.9c-0.9-0.1-1.5-0.8-1.5-1.7v-13.4c0-0.9,0.8-1.7,1.7-1.7h29.2c0.9,0,1.7,0.8,1.7,1.7v16.3
			C-183.7-50.8-184.5-50-185.5-50.1z M-159.4-47.5l-16.2-1.6c-0.9-0.1-1.5-0.8-1.5-1.7v-17.3c0-0.9,0.8-1.7,1.7-1.7h16.2
			c0.9,0,1.7,0.8,1.7,1.7v18.9C-157.6-48.2-158.4-47.4-159.4-47.5z M-159.3-76.3h-35c-1.7,0-2.3-2.1-1-3.1l31.8-22.7
			c0.3-0.2,0.6-0.3,1-0.3h4.9V-78C-157.6-77.1-158.3-76.3-159.3-76.3z M-159.3-109h-39c-0.9,0-1.7-0.8-1.7-1.7v-8.5
			c0-0.9,0.7-1.6,1.5-1.7l39-3.9c1-0.1,1.9,0.7,1.9,1.7v12.4C-157.6-109.7-158.3-109-159.3-109z M-324-139.5v106.8
			c0,1,0.8,1.8,1.8,1.7l84.7-5.8c0.9-0.1,1.6-0.8,1.6-1.7v-95.2c0-0.9-0.7-1.6-1.6-1.7l-84.7-5.8C-323.1-141.3-324-140.5-324-139.5z
			 M-305.8-124.7l12.9,1.3c0.9,0.1,1.5,0.8,1.5,1.7v19.1c0,0.9-0.7,1.6-1.5,1.7l-12.9,1.3c-1,0.1-1.9-0.7-1.9-1.7V-123
			C-307.6-124-306.8-124.8-305.8-124.7z M-306.1-93.1l29.2-2.9c1-0.1,1.9,0.7,1.9,1.7V-78c0,0.9-0.8,1.7-1.7,1.7h-29.2
			c-0.9,0-1.7-0.8-1.7-1.7v-13.4C-307.6-92.3-307-93-306.1-93.1z M-292.9-48.8l-12.9,1.3c-1,0.1-1.9-0.7-1.9-1.7v-18.9
			c0-0.9,0.8-1.7,1.7-1.7h12.9c0.9,0,1.7,0.8,1.7,1.7v17.6C-291.3-49.6-292-48.9-292.9-48.8z M-270-51.1l-12.9,1.3
			c-1,0.1-1.9-0.7-1.9-1.7v-16.6c0-0.9,0.8-1.7,1.7-1.7h12.9c0.9,0,1.7,0.8,1.7,1.7v15.4C-268.5-51.9-269.1-51.1-270-51.1z
			 M-250.4-53l-9.6,1c-1,0.1-1.9-0.7-1.9-1.7v-14.4c0-0.9,0.8-1.7,1.7-1.7h9.6c0.9,0,1.7,0.8,1.7,1.7v13.4
			C-248.9-53.8-249.6-53.1-250.4-53z M-250.6-76.3h-16.2c-0.9,0-1.7-0.8-1.7-1.7v-17.3c0-0.9,0.7-1.6,1.5-1.7l16.2-1.6
			c1-0.1,1.9,0.7,1.9,1.7V-78C-248.9-77.1-249.7-76.3-250.6-76.3z M-250.4-105.2l-32.5,3.3c-1,0.1-1.9-0.7-1.9-1.7v-17.1
			c0-1,0.9-1.8,1.9-1.7l32.5,3.2c0.9,0.1,1.5,0.8,1.5,1.7v10.6C-248.9-106.1-249.6-105.3-250.4-105.2z"/>
	</g>
</g>
</svg>
